<svg width="72" height="90" viewBox="0 0 72 90" fill="none" xmlns="http://www.w3.org/2000/svg">
<path d="M69.6824 12.9516H65.4507V9.41321H58.4014V7.44258H46.1982V5.97018H40.5089V3.26494H28.8495V0H20.0818V3.35822H14.3926V5.78361L11.3142 5.87689V11.7495H28.6629V14.1749H31.648V17.16H31.7052V44.7922H28.8781V47.9035H24.7089V51.161H20.473V51.1642H19.061V54.3697H16.2307V57.6442H12.0541V57.6304H10.6389V57.6442H9.22378V54.3136H6.39346V51.2468H4.99208V51.2331H3.65642V46.2381H0.908783V67.5514H3.57586V70.6319H4.97724V70.6457H6.3924V73.7537H10.6379V73.74H12.0255V73.7537H13.4269V77.0844H16.2296V84.8821H17.6448V89.877H23.2683V87.0043H20.4762V81.756H23.3033V78.7169H24.7121V78.7063H27.4841V75.3756H28.8887V75.2611H30.2932V72.0555H31.7084V72.0174H33.1204V80.0928H34.4942V90H35.9094V89.9926H37.297V89.9958H40.1273V87.123H37.3245V72.4287H40.1485V68.9634H42.9587V65.3836H44.3325V65.6476H45.7477V62.8586H48.578V47.6787H54.2047V51.0094H57.035V44.8071H48.578V35.1352H51.3945V35.1278H58.3876V35.1204H62.6056V33.8303H58.3876V33.8377H51.3945V28.6H71.0912V12.9516H69.6824V12.9516ZM44.3314 20.6391H40.1474V17.3614H41.552V17.1611H41.5552V17.3646H44.3304V20.6391H44.3314Z" fill="white"/>
</svg>
