<svg width="65" height="65" viewBox="0 0 65 65" fill="none" xmlns="http://www.w3.org/2000/svg">
<g clip-path="url(#clip0_314_1201)">
<path d="M32.5 0.435547L37.1092 17.4597L50.1948 5.62983L44.8673 22.4447L62.272 19.5669L48.6965 30.8354L64.8929 37.8182L47.3836 39.9587L57.2347 54.595L41.3474 46.9273L41.7184 64.565L32.5 49.5244L23.2816 64.565L23.6526 46.9273L7.7653 54.595L17.6164 39.9587L0.107056 37.8182L16.3035 30.8354L2.73274 19.5669L20.1326 22.4447L14.8052 5.62983L27.8908 17.4597L32.5 0.435547Z" fill="url(#paint0_linear_314_1201)"/>
<path d="M43.2578 36.5439C43.2578 37.185 42.7382 37.7047 42.0971 37.7047H23.5257C22.8847 37.7047 22.365 37.185 22.365 36.5439C22.365 35.9029 22.8847 35.3832 23.5257 35.3832H42.0971C42.7382 35.3832 43.2578 35.9029 43.2578 36.5439ZM43.2578 29.5797C43.2578 30.2207 42.7382 30.7404 42.0971 30.7404H23.5257C22.8847 30.7404 22.365 30.2207 22.365 29.5797C22.365 28.9386 22.8847 28.4189 23.5257 28.4189H42.0971C42.7382 28.4189 43.2578 28.9386 43.2578 29.5797Z" fill="white"/>
</g>
<defs>
<linearGradient id="paint0_linear_314_1201" x1="0.107056" y1="0.435547" x2="64.2332" y2="65.2181" gradientUnits="userSpaceOnUse">
<stop offset="0.357292" stop-color="#E9B1BB"/>
<stop offset="0.682812" stop-color="#C0A9B8"/>
<stop offset="1" stop-color="#B6AA9E"/>
</linearGradient>
<clipPath id="clip0_314_1201">
<rect width="65" height="65" fill="white"/>
</clipPath>
</defs>
</svg>
