<svg width="23" height="18" viewBox="0 0 23 18" fill="none" xmlns="http://www.w3.org/2000/svg">
<path d="M19.8589 17.1438H2.71604C2.14772 17.1438 1.60267 16.9218 1.20081 16.5266C0.798946 16.1314 0.573181 15.5955 0.573181 15.0366V2.3021C0.597216 1.75929 0.833548 1.24659 1.23284 0.871038C1.63212 0.495484 2.1635 0.286108 2.71604 0.286622H19.8589C20.4272 0.286622 20.9723 0.508624 21.3741 0.90379C21.776 1.29896 22.0018 1.83492 22.0018 2.39376V15.0366C22.0018 15.5955 21.776 16.1314 21.3741 16.5266C20.9723 16.9218 20.4272 17.1438 19.8589 17.1438ZM2.71604 4.36184V15.0366H19.8589V4.36184L11.2875 9.97948L2.71604 4.36184ZM3.57318 2.39376L11.2875 7.45091L19.0018 2.39376H3.57318Z" fill="url(#paint0_linear_273_595)"/>
<defs>
<linearGradient id="paint0_linear_273_595" x1="0.573181" y1="0.286621" x2="16.9564" y2="21.1128" gradientUnits="userSpaceOnUse">
<stop offset="0.0798075" stop-color="#A3D0BA"/>
<stop offset="0.521289" stop-color="#76A698"/>
<stop offset="1" stop-color="#86A970"/>
</linearGradient>
</defs>
</svg>
