<svg width="23" height="22" viewBox="0 0 23 22" fill="none" xmlns="http://www.w3.org/2000/svg">
<path fill-rule="evenodd" clip-rule="evenodd" d="M8.53282 7.52178H12.5121V9.47089C13.0853 8.34989 14.5553 7.34268 16.7635 7.34268C20.9968 7.34268 22.0018 9.57414 22.0018 13.6683V21.2509H17.716V14.6007C17.716 12.2692 17.1428 10.9543 15.6835 10.9543C13.6596 10.9543 12.8185 12.3714 12.8185 14.5997V21.2509H8.53282V7.52178V7.52178ZM1.1839 21.0718H5.46961V7.34268H1.1839V21.0718V21.0718ZM6.08354 2.86605C6.0837 3.21929 6.01246 3.56903 5.87395 3.89495C5.73545 4.22088 5.53245 4.51648 5.27675 4.76459C4.75861 5.27096 4.05726 5.5544 3.32675 5.55266C2.59753 5.55218 1.8978 5.26946 1.3789 4.76564C1.12412 4.51669 0.921809 4.22076 0.783549 3.89479C0.64529 3.56882 0.573802 3.21923 0.573181 2.86605C0.573181 2.15278 0.862467 1.47007 1.37997 0.966461C1.89842 0.461967 2.59844 0.179128 3.32782 0.179444C4.05854 0.179444 4.75925 0.462854 5.27675 0.966461C5.79318 1.47007 6.08354 2.15278 6.08354 2.86605Z" fill="url(#paint0_linear_273_591)"/>
<defs>
<linearGradient id="paint0_linear_273_591" x1="0.573181" y1="0.179443" x2="21.6416" y2="21.605" gradientUnits="userSpaceOnUse">
<stop offset="0.0798075" stop-color="#A3D0BA"/>
<stop offset="0.521289" stop-color="#76A698"/>
<stop offset="1" stop-color="#86A970"/>
</linearGradient>
</defs>
</svg>
