<svg width="24" height="24" viewBox="0 0 24 24" fill="none" xmlns="http://www.w3.org/2000/svg">
<path fill-rule="evenodd" clip-rule="evenodd" d="M7.00473 0.195268C8.24057 0.138375 8.6346 0.125732 11.7827 0.125732C14.9307 0.125732 15.3248 0.139429 16.5596 0.195268C17.7944 0.251107 18.6372 0.448125 19.3747 0.733643C20.147 1.02548 20.8476 1.48168 21.4271 2.07168C22.0171 2.65009 22.4722 3.34966 22.763 4.12298C23.0496 4.86048 23.2455 5.70334 23.3024 6.93602C23.3593 8.17396 23.372 8.568 23.372 11.715C23.372 14.8631 23.3583 15.2571 23.3024 16.493C23.2466 17.7256 23.0496 18.5685 22.763 19.306C22.4722 20.0794 22.0163 20.7802 21.4271 21.3594C20.8476 21.9494 20.147 22.4046 19.3747 22.6953C18.6372 22.9819 17.7944 23.1779 16.5617 23.2348C15.3248 23.2917 14.9307 23.3043 11.7827 23.3043C8.6346 23.3043 8.24057 23.2906 7.00473 23.2348C5.77205 23.1789 4.92919 22.9819 4.19169 22.6953C3.41829 22.4045 2.71756 21.9486 2.13828 21.3594C1.54868 20.7807 1.09242 20.0803 0.801301 19.3071C0.515783 18.5696 0.319818 17.7267 0.262926 16.494C0.206033 15.2561 0.19339 14.862 0.19339 11.715C0.19339 8.56695 0.207086 8.17291 0.262926 6.93812C0.318765 5.70334 0.515783 4.86048 0.801301 4.12298C1.09285 3.34975 1.54946 2.64937 2.13934 2.07063C2.71779 1.48115 3.41782 1.0249 4.19064 0.733643C4.92814 0.448125 5.771 0.252161 7.00368 0.195268H7.00473ZM16.4658 2.28134C15.2437 2.2255 14.877 2.21391 11.7827 2.21391C8.68834 2.21391 8.32169 2.2255 7.09955 2.28134C5.96907 2.33296 5.35589 2.52155 4.9471 2.68064C4.40662 2.89136 4.01996 3.14105 3.61434 3.54668C3.22983 3.92075 2.93392 4.37614 2.7483 4.87945C2.58921 5.28823 2.40062 5.90141 2.349 7.03189C2.29316 8.25404 2.28157 8.62068 2.28157 11.715C2.28157 14.8094 2.29316 15.176 2.349 16.3981C2.40062 17.5286 2.58921 18.1418 2.7483 18.5506C2.93373 19.0531 3.22978 19.5093 3.61434 19.8834C3.98835 20.2679 4.44455 20.564 4.9471 20.7494C5.35589 20.9085 5.96907 21.0971 7.09955 21.1487C8.32169 21.2045 8.68728 21.2161 11.7827 21.2161C14.8781 21.2161 15.2437 21.2045 16.4658 21.1487C17.5963 21.0971 18.2095 20.9085 18.6182 20.7494C19.1587 20.5387 19.5454 20.289 19.951 19.8834C20.3356 19.5093 20.6316 19.0531 20.817 18.5506C20.9761 18.1418 21.1647 17.5286 21.2164 16.3981C21.2722 15.176 21.2838 14.8094 21.2838 11.715C21.2838 8.62068 21.2722 8.25404 21.2164 7.03189C21.1647 5.90141 20.9761 5.28823 20.817 4.87945C20.6063 4.33896 20.3566 3.9523 19.951 3.54668C19.5769 3.1622 19.1215 2.86629 18.6182 2.68064C18.2095 2.52155 17.5963 2.33296 16.4658 2.28134V2.28134ZM10.3024 15.2877C11.1291 15.6318 12.0496 15.6783 12.9068 15.4191C13.7639 15.1599 14.5045 14.6112 15.002 13.8667C15.4995 13.1221 15.7231 12.228 15.6346 11.3369C15.5461 10.4458 15.1509 9.61311 14.5167 8.981C14.1124 8.57693 13.6235 8.26753 13.0852 8.07508C12.547 7.88263 11.9728 7.81192 11.4039 7.86802C10.8351 7.92413 10.2857 8.10567 9.79543 8.39957C9.30515 8.69346 8.88614 9.09241 8.56855 9.56768C8.25096 10.043 8.0427 10.5827 7.95875 11.1482C7.87481 11.7136 7.91728 12.2906 8.0831 12.8376C8.24892 13.3847 8.53397 13.8881 8.91772 14.3118C9.30147 14.7354 9.77438 15.0687 10.3024 15.2877ZM7.5705 7.50284C8.12365 6.94969 8.78033 6.5109 9.50306 6.21154C10.2258 5.91218 11.0004 5.7581 11.7827 5.7581C12.5649 5.7581 13.3396 5.91218 14.0623 6.21154C14.785 6.5109 15.4417 6.94969 15.9949 7.50284C16.548 8.05599 16.9868 8.71268 17.2862 9.4354C17.5855 10.1581 17.7396 10.9327 17.7396 11.715C17.7396 12.4973 17.5855 13.2719 17.2862 13.9946C16.9868 14.7174 16.548 15.374 15.9949 15.9272C14.8777 17.0443 13.3625 17.6719 11.7827 17.6719C10.2028 17.6719 8.68764 17.0443 7.5705 15.9272C6.45336 14.8101 5.82576 13.2949 5.82576 11.715C5.82576 10.1351 6.45336 8.61998 7.5705 7.50284V7.50284ZM19.0607 6.64523C19.1978 6.51593 19.3076 6.36043 19.3835 6.18795C19.4594 6.01548 19.4999 5.82952 19.5026 5.6411C19.5054 5.45269 19.4703 5.26563 19.3995 5.09101C19.3286 4.9164 19.2235 4.75777 19.0902 4.62452C18.957 4.49128 18.7983 4.38612 18.6237 4.31528C18.4491 4.24444 18.262 4.20935 18.0736 4.2121C17.8852 4.21484 17.6993 4.25537 17.5268 4.33127C17.3543 4.40717 17.1988 4.51691 17.0695 4.65398C16.818 4.92057 16.6803 5.27466 16.6857 5.6411C16.691 6.00755 16.839 6.35748 17.0981 6.61662C17.3572 6.87576 17.7072 7.0237 18.0736 7.02905C18.4401 7.03439 18.7942 6.89671 19.0607 6.64523V6.64523Z" fill="url(#paint0_linear_273_177)"/>
<defs>
<linearGradient id="paint0_linear_273_177" x1="0.19339" y1="0.125732" x2="23.372" y2="23.3043" gradientUnits="userSpaceOnUse">
<stop offset="0.0798075" stop-color="#A3D0BA"/>
<stop offset="0.521289" stop-color="#76A698"/>
<stop offset="1" stop-color="#86A970"/>
</linearGradient>
</defs>
</svg>
