<svg width="51" height="51" viewBox="0 0 51 51" fill="none" xmlns="http://www.w3.org/2000/svg">
<path d="M29.4378 14.4564L37.833 6.91926L34.4174 17.6255L34.1133 18.5787L35.1006 18.4165L46.2567 16.5846L37.5594 23.7542L36.7828 24.3944L37.708 24.7905L48.082 29.2323L36.8646 30.5941L35.8678 30.7152L36.4311 31.5464L42.7438 40.8608L32.5562 35.9778L31.6574 35.547L31.6786 36.5435L31.9165 47.7788L26.0014 38.1943L25.4798 37.3492L24.9583 38.1943L19.0431 47.7788L19.2811 36.5435L19.3022 35.547L18.4034 35.9778L8.21585 40.8608L14.5285 31.5464L15.0919 30.7152L14.095 30.5941L2.87761 29.2323L13.2517 24.7905L14.1767 24.3945L13.4004 23.7543L4.70599 16.5846L15.8591 18.4165L16.8464 18.5787L16.5423 17.6255L13.1267 6.91926L21.5218 14.4564L22.2612 15.1202L22.5226 14.1616L25.4798 3.3143L28.4371 14.1616L28.6984 15.1202L29.4378 14.4564Z" fill="#E9B1BB" stroke="white" stroke-width="1.22579"/>
</svg>
