<svg width="381" height="560" viewBox="0 0 381 560" fill="none" xmlns="http://www.w3.org/2000/svg">
<path d="M189.687 175.397L328.307 131.734L231.153 239.149L228.963 241.57L232.115 242.421L372.809 280.407L232.458 318.187L229.287 319.041L231.501 321.467L329.619 428.967L190.659 385.122L187.534 384.136L188.086 387.366L212.511 530.366L119.016 418.774L116.927 416.281L115.645 419.27L58.5607 552.325L40.2603 408.418L39.8515 405.204L37.1612 407.01L-83.2662 487.888L-20.5994 357.369L-19.1916 354.437L-22.4433 354.504L-167.995 357.489L-44.2217 281.821L-41.426 280.112L-44.2242 278.406L-168.656 202.584L-23.1452 205.773L-19.8623 205.844L-21.3046 202.895L-85.1353 72.3473L35.9872 153.314L38.7016 155.128L39.0848 151.886L56.082 8.05306L114.379 141.182L115.68 144.152L117.75 141.656L210.227 30.2023L187.112 173.17L186.595 176.371L189.687 175.397Z" stroke="url(#paint0_linear_91_1113)" stroke-width="4"/>
<defs>
<linearGradient id="paint0_linear_91_1113" x1="-42.707" y1="-93.0659" x2="228.036" y2="647.73" gradientUnits="userSpaceOnUse">
<stop offset="0.0798075" stop-color="#A3D0BA"/>
<stop offset="0.521289" stop-color="#76A698"/>
<stop offset="1" stop-color="#86A970"/>
</linearGradient>
</defs>
</svg>
