<svg width="292" height="266" viewBox="0 0 292 266" fill="none" xmlns="http://www.w3.org/2000/svg">
<path d="M-49.991 0.951231C-1.28957 0.951231 17.6141 61.8704 36.7213 126.387C43.9841 151.807 56.677 197.488 66.6548 209.705C75.9879 197.488 86.3051 151.807 92.2443 126.387C107.958 61.8704 123.705 0.951231 172.406 0.951231C221.108 0.951231 234.174 61.8704 247.071 126.387C252.161 153.232 261.087 202.68 270.488 211.436C283.317 212.353 292.514 224.129 291.36 238.519C290.206 252.909 278.362 265.67 265.092 265.67C221.956 265.67 210.248 204.751 196.944 140.234C191.446 114.814 181.163 69.1332 171.185 56.9154C160.664 69.1332 148.412 114.814 141.794 140.234C125.64 204.751 111.25 265.67 68.1142 265.67C24.9787 265.67 7.43256 204.751 -12.0819 140.234C-20.4647 113.389 -36.3817 63.9406 -47.6832 55.1846C-61.5979 54.2682 -73.578 42.4917 -74.7998 28.1018C-76.0216 13.712 -64.9917 0.951231 -49.991 0.951231V0.951231Z" fill="url(#paint0_linear_273_13)"/>
<defs>
<linearGradient id="paint0_linear_273_13" x1="291.458" y1="265.67" x2="40.1236" y2="-82.1574" gradientUnits="userSpaceOnUse">
<stop offset="0.0798075" stop-color="#A3D0BA"/>
<stop offset="0.521289" stop-color="#76A698"/>
<stop offset="1" stop-color="#86A970"/>
</linearGradient>
</defs>
</svg>
