<svg width="302" height="266" viewBox="0 0 302 266" fill="none" xmlns="http://www.w3.org/2000/svg">
<path d="M341.706 265.67C293.005 265.67 274.101 204.75 254.994 140.234C247.731 114.814 235.038 69.1331 225.06 56.9154C215.727 69.1331 205.41 114.814 199.471 140.234C183.758 204.75 168.01 265.67 119.309 265.67C70.6075 265.67 57.5413 204.75 44.6447 140.234C39.554 113.389 30.6282 63.9406 21.2273 55.1845C8.39866 54.2682 -0.798601 42.4916 0.355299 28.1018C1.5092 13.712 13.3537 0.951172 26.6235 0.951172C69.759 0.951172 81.4677 61.8703 94.7715 126.387C100.27 151.807 110.553 197.488 120.531 209.705C131.052 197.488 143.303 151.807 149.921 126.387C166.076 61.8703 180.466 0.951172 223.601 0.951172C266.737 0.951172 284.283 61.8703 303.797 126.387C312.18 153.232 328.097 202.68 339.398 211.436C353.313 212.353 365.293 224.129 366.515 238.519C367.737 252.909 356.707 265.67 341.706 265.67V265.67Z" fill="url(#paint0_linear_273_17)"/>
<defs>
<linearGradient id="paint0_linear_273_17" x1="0.257629" y1="0.951172" x2="251.592" y2="348.778" gradientUnits="userSpaceOnUse">
<stop offset="0.0798075" stop-color="#A3D0BA"/>
<stop offset="0.521289" stop-color="#76A698"/>
<stop offset="1" stop-color="#86A970"/>
</linearGradient>
</defs>
</svg>
